<svg width="162" height="56" viewBox="0 0 162 56" fill="none" xmlns="http://www.w3.org/2000/svg">
<rect y="8" width="39" height="40" rx="8" fill="#F59E0B"/>
<path d="M12.1129 18.28H15.0129V33H12.1129V18.28ZM20.8921 24.26L21.1121 25.82L21.0721 25.68C21.3788 25.1333 21.8121 24.6933 22.3721 24.36C22.9321 24.0133 23.6188 23.84 24.4321 23.84C25.2588 23.84 25.9454 24.0867 26.4921 24.58C27.0521 25.06 27.3388 25.6867 27.3521 26.46V33H24.5521V27.5C24.5388 27.1133 24.4321 26.8067 24.2321 26.58C24.0454 26.34 23.7254 26.22 23.2721 26.22C22.8454 26.22 22.4721 26.36 22.1521 26.64C21.8321 26.92 21.5854 27.3 21.4121 27.78C21.2388 28.26 21.1521 28.8133 21.1521 29.44V33H18.3521V24.26H20.8921Z" fill="#F1F5F9"/>
<path d="M40.9352 16.28H50.1352V19.08H43.8352V22.42H49.2952V25.22H43.8352V31H40.9352V16.28ZM52.9273 16.28H55.8273V28.2H62.7473V31H52.9273V16.28ZM68.3398 25.56C68.3398 26.0267 68.4798 26.4733 68.7598 26.9C69.0398 27.3267 69.4065 27.6733 69.8598 27.94C70.3265 28.2067 70.8332 28.34 71.3798 28.34C71.9798 28.34 72.5132 28.2067 72.9798 27.94C73.4465 27.6733 73.8132 27.3267 74.0798 26.9C74.3598 26.4733 74.4998 26.0267 74.4998 25.56V16.28H77.3598V25.62C77.3598 26.7 77.0932 27.66 76.5598 28.5C76.0265 29.3267 75.3065 29.98 74.3998 30.46C73.4932 30.9267 72.4865 31.16 71.3798 31.16C70.2865 31.16 69.2865 30.9267 68.3798 30.46C67.4865 29.98 66.7732 29.3267 66.2398 28.5C65.7065 27.66 65.4398 26.7 65.4398 25.62V16.28H68.3398V25.56ZM80.857 16.28H90.897V19.08H83.757V22.22H90.077V25.02H83.757V28.2H91.177V31H80.857V16.28ZM107.357 31.6L96.1973 21.52L97.0573 22L97.1173 31H94.1773V15.7H94.2973L105.217 25.74L104.577 25.46L104.517 16.28H107.437V31.6H107.357ZM122.268 29.78C122.108 29.9133 121.808 30.0933 121.368 30.32C120.941 30.5467 120.415 30.7467 119.788 30.92C119.161 31.0933 118.468 31.1733 117.708 31.16C116.548 31.1333 115.508 30.9267 114.588 30.54C113.681 30.14 112.908 29.6 112.268 28.92C111.641 28.24 111.161 27.46 110.828 26.58C110.495 25.7 110.328 24.76 110.328 23.76C110.328 22.64 110.495 21.6133 110.828 20.68C111.175 19.7467 111.661 18.94 112.288 18.26C112.928 17.58 113.688 17.0533 114.568 16.68C115.448 16.3067 116.421 16.12 117.488 16.12C118.475 16.12 119.348 16.2533 120.108 16.52C120.868 16.7867 121.488 17.0733 121.968 17.38L120.828 20.12C120.495 19.8667 120.048 19.6067 119.488 19.34C118.941 19.06 118.308 18.92 117.588 18.92C117.028 18.92 116.488 19.04 115.968 19.28C115.461 19.5067 115.008 19.8333 114.608 20.26C114.221 20.6867 113.915 21.1867 113.688 21.76C113.461 22.32 113.348 22.9333 113.348 23.6C113.348 24.3067 113.448 24.9533 113.648 25.54C113.861 26.1267 114.161 26.6333 114.548 27.06C114.935 27.4733 115.395 27.7933 115.928 28.02C116.475 28.2467 117.088 28.36 117.768 28.36C118.555 28.36 119.228 28.2333 119.788 27.98C120.348 27.7267 120.775 27.46 121.068 27.18L122.268 29.78ZM125.173 16.28H135.213V19.08H128.073V22.22H134.393V25.02H128.073V28.2H135.493V31H125.173V16.28ZM142.954 16.28C143.874 16.28 144.694 16.4 145.414 16.64C146.134 16.8667 146.734 17.2 147.214 17.64C147.707 18.0667 148.08 18.5867 148.334 19.2C148.587 19.8 148.714 20.48 148.714 21.24C148.714 21.84 148.62 22.44 148.434 23.04C148.26 23.64 147.967 24.1867 147.554 24.68C147.154 25.1733 146.62 25.5733 145.954 25.88C145.287 26.1733 144.46 26.32 143.474 26.32H141.394V31H138.494V16.28H142.954ZM143.454 23.52C143.894 23.52 144.26 23.4467 144.554 23.3C144.847 23.1533 145.074 22.9667 145.234 22.74C145.407 22.5133 145.527 22.28 145.594 22.04C145.674 21.7867 145.714 21.5533 145.714 21.34C145.714 21.18 145.687 20.98 145.634 20.74C145.594 20.4867 145.5 20.2333 145.354 19.98C145.207 19.7267 144.98 19.5133 144.674 19.34C144.38 19.1667 143.98 19.08 143.474 19.08H141.394V23.52H143.454ZM146.174 25.32L149.814 31H146.434L142.714 25.4L146.174 25.32ZM160.065 19.84C159.505 19.5333 158.931 19.28 158.345 19.08C157.771 18.88 157.231 18.78 156.725 18.78C156.098 18.78 155.605 18.9067 155.245 19.16C154.885 19.4133 154.705 19.7933 154.705 20.3C154.705 20.6467 154.838 20.96 155.105 21.24C155.385 21.5067 155.738 21.7467 156.165 21.96C156.605 22.1733 157.058 22.3667 157.525 22.54C157.951 22.7 158.371 22.8933 158.785 23.12C159.211 23.3333 159.591 23.6067 159.925 23.94C160.258 24.26 160.525 24.6667 160.725 25.16C160.925 25.64 161.025 26.2333 161.025 26.94C161.025 27.6867 160.831 28.38 160.445 29.02C160.058 29.66 159.491 30.18 158.745 30.58C157.998 30.9667 157.078 31.16 155.985 31.16C155.425 31.16 154.851 31.1067 154.265 31C153.691 30.88 153.125 30.7067 152.565 30.48C152.005 30.24 151.465 29.94 150.945 29.58L152.225 27.32C152.571 27.5733 152.945 27.8 153.345 28C153.758 28.1867 154.171 28.3333 154.585 28.44C154.998 28.5467 155.378 28.6 155.725 28.6C156.071 28.6 156.418 28.5533 156.765 28.46C157.125 28.3533 157.418 28.18 157.645 27.94C157.885 27.7 158.005 27.3667 158.005 26.94C158.005 26.6467 157.905 26.38 157.705 26.14C157.518 25.9 157.258 25.68 156.925 25.48C156.605 25.28 156.251 25.1067 155.865 24.96C155.411 24.7867 154.945 24.5867 154.465 24.36C153.985 24.1333 153.531 23.86 153.105 23.54C152.691 23.2067 152.351 22.8 152.085 22.32C151.831 21.8267 151.705 21.2267 151.705 20.52C151.705 19.6667 151.891 18.9267 152.265 18.3C152.651 17.6733 153.191 17.18 153.885 16.82C154.578 16.4467 155.378 16.24 156.285 16.2C157.471 16.2 158.431 16.34 159.165 16.62C159.911 16.9 160.578 17.2333 161.165 17.62L160.065 19.84Z" fill="#F1F5F9"/>
<rect x="39" y="36" width="123" height="4" fill="#F59E0B"/>
</svg>
