<svg width="39" height="40" viewBox="0 0 39 40" fill="none" xmlns="http://www.w3.org/2000/svg">
<rect width="39" height="40" rx="8" fill="#F97316"/>
<path d="M12.1129 10.28H15.0129V25H12.1129V10.28ZM20.8921 16.26L21.1121 17.82L21.0721 17.68C21.3788 17.1333 21.8121 16.6933 22.3721 16.36C22.9321 16.0133 23.6188 15.84 24.4321 15.84C25.2588 15.84 25.9454 16.0867 26.4921 16.58C27.0521 17.06 27.3388 17.6867 27.3521 18.46V25H24.5521V19.5C24.5388 19.1133 24.4321 18.8067 24.2321 18.58C24.0454 18.34 23.7254 18.22 23.2721 18.22C22.8454 18.22 22.4721 18.36 22.1521 18.64C21.8321 18.92 21.5854 19.3 21.4121 19.78C21.2388 20.26 21.1521 20.8133 21.1521 21.44V25H18.3521V16.26H20.8921Z" fill="#F1F5F9"/>
</svg>
